# xmcd
#
# Track frame offsets: 
#        151
#        18710
#        44553
#        73982
#        91987
#        109330
#        130063
#        155884
#        171421
#        185396
#        203833
#        226134
#        244150
#
# Disc length: 3456 seconds
#
# Revision: 0
# Processed by: cddbd v1.5.1PL2 Copyright (c) Steve Scherf et al.
# Submitted via: ExactAudioCopy v0.95b4
#
DISCID=be0d7e0d
DTITLE=Original Contemporaries, The - green times blue
DYEAR=1998
DGENRE=Blues
TTITLE0=Dear Johnson Boogie
TTITLE1=New York Time
TTITLE2=Chicago in May
TTITLE3=Contemporary Breakdown
TTITLE4=Groovy
TTITLE5=Good Gumbo Grindin´
TTITLE6=Blues for Kerstin
TTITLE7=Dave Speaks
TTITLE8=Boom Boom Boom Boom
TTITLE9=Chocolate Drop
TTITLE10=Sloppy Avenue
TTITLE11=Travellin´ So Far
TTITLE12=Old Fashioned New
EXTD=
EXTT0=
EXTT1=
EXTT2=
EXTT3=
EXTT4=
EXTT5=
EXTT6=
EXTT7=
EXTT8=
EXTT9=
EXTT10=
EXTT11=
EXTT12=
PLAYORDER=
